<svg width="80" height="34" viewBox="0 0 80 34" fill="none" xmlns="http://www.w3.org/2000/svg">
<path d="M8.23594 1.37891V26.6719H13.2359V33H0.0132828V1.37891H8.23594ZM34.4367 19.8945C34.4367 23.0716 34.3586 25.3242 34.2023 26.6523C34.0591 27.9674 33.5904 29.1719 32.7961 30.2656C32.0148 31.3594 30.9536 32.1992 29.6125 32.7852C28.2714 33.3711 26.7089 33.6641 24.925 33.6641C23.2323 33.6641 21.7089 33.3906 20.3547 32.8438C19.0135 32.2839 17.9328 31.4505 17.1125 30.3438C16.2922 29.237 15.8039 28.0326 15.6477 26.7305C15.4914 25.4284 15.4133 23.1497 15.4133 19.8945V14.4844C15.4133 11.3073 15.4849 9.0612 15.6281 7.74609C15.7844 6.41797 16.2531 5.20703 17.0344 4.11328C17.8286 3.01953 18.8964 2.17969 20.2375 1.59375C21.5786 1.00781 23.1411 0.714844 24.925 0.714844C26.6177 0.714844 28.1346 0.994792 29.4758 1.55469C30.8299 2.10156 31.9172 2.92839 32.7375 4.03516C33.5578 5.14193 34.0461 6.34635 34.2023 7.64844C34.3586 8.95052 34.4367 11.2292 34.4367 14.4844V19.8945ZM26.2141 9.50391C26.2141 8.03255 26.1294 7.09505 25.9602 6.69141C25.8039 6.27474 25.4719 6.06641 24.9641 6.06641C24.5344 6.06641 24.2023 6.23568 23.968 6.57422C23.7466 6.89974 23.6359 7.8763 23.6359 9.50391V24.2695C23.6359 26.1055 23.7076 27.2383 23.8508 27.668C24.007 28.0977 24.3586 28.3125 24.9055 28.3125C25.4654 28.3125 25.8234 28.0651 25.9797 27.5703C26.1359 27.0755 26.2141 25.8971 26.2141 24.0352V9.50391ZM56.7898 13.0195H48.5672V10.1484C48.5672 8.33854 48.4891 7.20573 48.3328 6.75C48.1766 6.29427 47.8055 6.06641 47.2195 6.06641C46.7117 6.06641 46.3667 6.26172 46.1844 6.65234C46.0021 7.04297 45.9109 8.04557 45.9109 9.66016V24.8359C45.9109 26.2552 46.0021 27.1927 46.1844 27.6484C46.3667 28.0911 46.7313 28.3125 47.2781 28.3125C47.8771 28.3125 48.2807 28.0586 48.4891 27.5508C48.7104 27.043 48.8211 26.0534 48.8211 24.582V20.832H47.1609V16.0273H56.7898V33H51.6141L50.8523 30.7344C50.2924 31.7109 49.5828 32.4466 48.7234 32.9414C47.8771 33.4232 46.8745 33.6641 45.7156 33.6641C44.3354 33.6641 43.0398 33.332 41.8289 32.668C40.631 31.9909 39.7195 31.1576 39.0945 30.168C38.4695 29.1784 38.0789 28.1432 37.9227 27.0625C37.7664 25.9688 37.6883 24.3346 37.6883 22.1602V12.7656C37.6883 9.74479 37.851 7.55078 38.1766 6.18359C38.5021 4.81641 39.4331 3.56641 40.9695 2.43359C42.519 1.28776 44.5177 0.714844 46.9656 0.714844C49.3745 0.714844 51.3732 1.20964 52.9617 2.19922C54.5503 3.1888 55.5854 4.36719 56.0672 5.73438C56.549 7.08854 56.7898 9.0612 56.7898 11.6523V13.0195ZM79.182 19.8945C79.182 23.0716 79.1039 25.3242 78.9477 26.6523C78.8044 27.9674 78.3357 29.1719 77.5414 30.2656C76.7602 31.3594 75.699 32.1992 74.3578 32.7852C73.0167 33.3711 71.4542 33.6641 69.6703 33.6641C67.9776 33.6641 66.4542 33.3906 65.1 32.8438C63.7589 32.2839 62.6781 31.4505 61.8578 30.3438C61.0375 29.237 60.5492 28.0326 60.393 26.7305C60.2367 25.4284 60.1586 23.1497 60.1586 19.8945V14.4844C60.1586 11.3073 60.2302 9.0612 60.3734 7.74609C60.5297 6.41797 60.9984 5.20703 61.7797 4.11328C62.574 3.01953 63.6417 2.17969 64.9828 1.59375C66.324 1.00781 67.8865 0.714844 69.6703 0.714844C71.363 0.714844 72.88 0.994792 74.2211 1.55469C75.5753 2.10156 76.6625 2.92839 77.4828 4.03516C78.3031 5.14193 78.7914 6.34635 78.9477 7.64844C79.1039 8.95052 79.182 11.2292 79.182 14.4844V19.8945ZM70.9594 9.50391C70.9594 8.03255 70.8747 7.09505 70.7055 6.69141C70.5492 6.27474 70.2172 6.06641 69.7094 6.06641C69.2797 6.06641 68.9477 6.23568 68.7133 6.57422C68.4919 6.89974 68.3813 7.8763 68.3813 9.50391V24.2695C68.3813 26.1055 68.4529 27.2383 68.5961 27.668C68.7523 28.0977 69.1039 28.3125 69.6508 28.3125C70.2107 28.3125 70.5688 28.0651 70.725 27.5703C70.8813 27.0755 70.9594 25.8971 70.9594 24.0352V9.50391Z" fill="#FFFFFE"/>
</svg>
